<?xml version="1.0" encoding="utf-8"?>
<!-- Generator: Adobe Illustrator 18.1.0, SVG Export Plug-In . SVG Version: 6.00 Build 0)  -->
<svg version="1.1" id="Layer_1" xmlns="http://www.w3.org/2000/svg" xmlns:xlink="http://www.w3.org/1999/xlink" x="0px" y="0px"
	 viewBox="0 0 795 428.6" enable-background="new 0 0 795 428.6" xml:space="preserve">
<path fill="none" stroke="#010101" stroke-width="3" stroke-miterlimit="10" d="M466.7,304.3h-10.3c0,0,5.7-9.2-8.6-12.6
	c0,0,0.6-13.7-18.9-15.4c0,0-17.2-2.3-21.7,18.9c0,0-14.3-2.9-16.6,9.2h-13.7"/>
<path fill="none" stroke="#010101" stroke-width="3" stroke-miterlimit="10" d="M248.2,254.5h6.1c0,0,1.5-8.4,12.2-6.9
	s-0.8-12.2,16.8-14.5c0,0,6.9,0.8,10.7,10.7c0,0,13.7-1.5,9.9,10.7h6.9"/>
<circle fill="none" stroke="#010101" stroke-width="3" stroke-miterlimit="10" cx="583.5" cy="364.7" r="11.2"/>
<polyline fill="none" stroke="#010101" stroke-width="3" stroke-miterlimit="10" points="594.7,364.7 583.5,364.7 583.5,372.2 "/>
<polyline fill="none" stroke="#010101" stroke-width="4" stroke-miterlimit="10" points="568.5,414.1 568.5,340.4 598.5,340.4 
	598.5,414.1 "/>
<line fill="none" stroke="#010101" stroke-width="3" stroke-miterlimit="10" x1="583.5" y1="385.4" x2="583.5" y2="392.5"/>
<line fill="none" stroke="#010101" stroke-width="3" stroke-miterlimit="10" x1="583.5" y1="403.2" x2="583.5" y2="410.2"/>
<line fill="none" stroke="#010101" stroke-width="3" stroke-miterlimit="10" x1="578.2" y1="395.7" x2="578.2" y2="402.7"/>
<line fill="none" stroke="#010101" stroke-width="3" stroke-miterlimit="10" x1="589.1" y1="395.7" x2="589.1" y2="402.7"/>
<path fill="none" stroke="#010101" stroke-width="3" stroke-miterlimit="10" d="M493.4,404.6"/>
<path fill="none" stroke="#010101" stroke-width="3" stroke-miterlimit="10" d="M602.6,351.1"/>
<line fill="none" stroke="#010101" stroke-width="3" stroke-miterlimit="10" x1="489.8" y1="403.6" x2="489.8" y2="405.6"/>
<line fill="none" stroke="#010101" stroke-width="3" stroke-miterlimit="10" x1="494.4" y1="403.6" x2="494.4" y2="405.6"/>
<line fill="none" stroke="#010101" stroke-width="3" stroke-miterlimit="10" x1="499" y1="403.6" x2="499" y2="405.6"/>
<line fill="none" stroke="#010101" stroke-width="3" stroke-miterlimit="10" x1="503.6" y1="403.6" x2="503.6" y2="405.6"/>
<line fill="none" stroke="#010101" stroke-width="3" stroke-miterlimit="10" x1="508.2" y1="403.6" x2="508.2" y2="405.6"/>
<polyline fill="none" stroke="#010101" stroke-width="4" stroke-miterlimit="10" points="183.7,354.4 183.7,331.6 245.5,331.6 
	245.5,312.9 308.4,312.9 "/>
<line fill="none" stroke="#010101" stroke-width="2" stroke-miterlimit="10" x1="191.7" y1="341.8" x2="191.7" y2="365.7"/>
<line fill="none" stroke="#010101" stroke-width="2" stroke-miterlimit="10" x1="200.9" y1="341.8" x2="200.9" y2="365.7"/>
<line fill="none" stroke="#010101" stroke-width="2" stroke-miterlimit="10" x1="231.8" y1="341.8" x2="231.8" y2="365.7"/>
<line fill="none" stroke="#010101" stroke-width="2" stroke-miterlimit="10" x1="240.9" y1="341.8" x2="240.9" y2="369.3"/>
<line fill="none" stroke="#010101" stroke-width="2" stroke-miterlimit="10" x1="254.7" y1="320.1" x2="308.4" y2="320.1"/>
<line fill="none" stroke="#010101" stroke-width="2" stroke-miterlimit="10" x1="254.7" y1="326.8" x2="308.4" y2="326.8"/>
<polyline fill="none" stroke="#010101" stroke-width="2" stroke-miterlimit="10" points="308.4,340.4 270.7,340.4 270.7,386.2 "/>
<line fill="none" stroke="#010101" stroke-width="2" stroke-miterlimit="10" x1="281.5" y1="362.4" x2="308.4" y2="362.4"/>
<line fill="none" stroke="#010101" stroke-width="2" stroke-miterlimit="10" x1="281.5" y1="340.4" x2="281.5" y2="333.6"/>
<line fill="none" stroke="#010101" stroke-width="2" stroke-miterlimit="10" x1="298.1" y1="340.4" x2="298.1" y2="333.6"/>
<rect x="262.7" y="299.5" fill="none" stroke="#010101" stroke-width="2" stroke-miterlimit="10" width="8" height="13.4"/>
<rect x="432.1" y="405.1" fill="none" stroke="#010101" stroke-width="3" stroke-miterlimit="10" width="70.9" height="20.6"/>
<line fill="none" stroke="#010101" stroke-width="3" stroke-miterlimit="10" x1="432.1" y1="412" x2="503" y2="412"/>
<line fill="none" stroke="#010101" stroke-width="3" stroke-miterlimit="10" x1="447.3" y1="402.2" x2="458.2" y2="402.2"/>
<line fill="none" stroke="#010101" stroke-width="3" stroke-miterlimit="10" x1="452.7" y1="402.2" x2="452.7" y2="397.1"/>
<polyline fill="none" stroke="#010101" stroke-width="3" stroke-miterlimit="10" points="383.7,384.1 442.7,384.1 442.7,405.1 
	383.7,405.1 "/>
<line fill="none" stroke="#010101" stroke-width="3" stroke-miterlimit="10" x1="383.7" y1="389.5" x2="442.7" y2="389.5"/>
<polyline fill="none" stroke="#010101" stroke-width="4" stroke-miterlimit="10" points="566.7,372.7 548.4,372.7 548.4,387.2 
	529.4,387.2 529.4,367.4 492.3,367.4 492.3,351.3 443.4,351.3 443.4,367.4 402.5,367.4 402.5,359.7 381,359.7 "/>
<line fill="none" stroke="#010101" stroke-width="5" stroke-miterlimit="10" x1="559.1" y1="372.7" x2="559.1" y2="365.1"/>
<line fill="none" stroke="#010101" stroke-width="3" stroke-miterlimit="10" x1="452" y1="365.1" x2="452" y2="381.8"/>
<line fill="none" stroke="#010101" stroke-width="3" stroke-miterlimit="10" x1="460" y1="365.1" x2="460" y2="381.8"/>
<line fill="none" stroke="#010101" stroke-width="3" stroke-miterlimit="10" x1="475.4" y1="365.1" x2="475.4" y2="381.8"/>
<line fill="none" stroke="#010101" stroke-width="3" stroke-miterlimit="10" x1="483.4" y1="365.1" x2="483.4" y2="381.8"/>
<line fill="none" stroke="#010101" stroke-width="3" stroke-miterlimit="10" x1="491.1" y1="367.4" x2="491.1" y2="405.1"/>
<line fill="none" stroke="#010101" stroke-width="3" stroke-miterlimit="10" x1="492.3" y1="381.8" x2="529.4" y2="381.8"/>
<line fill="none" stroke="#010101" stroke-width="3" stroke-miterlimit="10" x1="492.3" y1="374.6" x2="505.7" y2="374.6"/>
<line fill="none" stroke="#010101" stroke-width="3" stroke-miterlimit="10" x1="401.3" y1="375.7" x2="442.2" y2="375.7"/>
<ellipse fill="#010101" stroke="#010101" stroke-width="3" stroke-miterlimit="10" cx="168.8" cy="267.9" rx="26.6" ry="3.5"/>
<ellipse fill="none" stroke="#010101" stroke-width="3" stroke-miterlimit="10" cx="168.5" cy="262.9" rx="28.6" ry="5"/>
<ellipse fill="none" stroke="#010101" stroke-width="3" stroke-miterlimit="10" cx="168.7" cy="260.7" rx="30.1" ry="9.3"/>
<path fill="none" stroke="#010101" stroke-width="3" stroke-miterlimit="10" d="M159.8,250.9v-7.2c0,0,7.9-7,17.8,0v8.7"/>
<line fill="none" stroke="#010101" stroke-width="3" stroke-miterlimit="10" x1="165.2" y1="240.6" x2="165.2" y2="224.4"/>
<line fill="none" stroke="#010101" stroke-width="3" stroke-miterlimit="10" x1="171.2" y1="240.6" x2="171.2" y2="220.9"/>
<path fill="none" stroke="#010101" stroke-width="3" stroke-miterlimit="10" d="M155,271.5c0,0,8.3,32.6,4.8,66.6l-10.2,91.4"/>
<path fill="none" stroke="#010101" stroke-width="3" stroke-miterlimit="10" d="M182.6,270.9c0,0-8.3,32.6-4.8,66.6l10.2,91.4"/>
<polyline fill="none" stroke="#010101" stroke-width="3" stroke-miterlimit="10" points="160.7,428.9 165.2,392.8 172.3,392.8 
	179.7,432.2 "/>
<polyline fill="none" stroke="#010101" stroke-width="3" stroke-miterlimit="10" points="165.2,271.5 168.5,301.2 173.9,271.5 "/>
<polyline fill="none" stroke="#010101" stroke-width="4" stroke-miterlimit="10" points="431.1,346.1 449.6,338.3 490.6,294.5 
	515.7,294.5 529.6,291.8 580.4,332 626.7,346.1 "/>
<polyline fill="none" stroke="#010101" stroke-width="2" stroke-miterlimit="10" points="498.9,300.2 494.7,304.9 494.7,309.6 "/>
<polyline fill="none" stroke="#010101" stroke-width="2" stroke-miterlimit="10" points="478.1,324.7 471.3,329.4 468.7,338.8 
	456.7,342.9 "/>
<line fill="none" stroke="#010101" stroke-width="2" stroke-miterlimit="10" x1="545.8" y1="324.7" x2="558.9" y2="333.8"/>
<polyline fill="none" stroke="#010101" stroke-width="2" stroke-miterlimit="10" points="502.6,316.3 498.9,324.8 498.9,333.1 "/>
<polyline fill="none" stroke="#010101" stroke-width="2" stroke-miterlimit="10" points="515.6,303.5 523.9,308.4 523.9,324.3 
	532.3,333.8 "/>
<polyline fill="none" stroke="#010101" stroke-width="4" stroke-miterlimit="10" points="316.4,368 316.4,257.9 362,257.9 
	362,369.2 "/>
<path fill="none" stroke="#010101" stroke-width="3" stroke-miterlimit="10" d="M326.7,264.5"/>
<line fill="none" stroke="#010101" stroke-width="3" stroke-miterlimit="10" x1="323.1" y1="262.8" x2="323.1" y2="266.2"/>
<line fill="none" stroke="#010101" stroke-width="3" stroke-miterlimit="10" x1="331.1" y1="262.8" x2="331.1" y2="266.2"/>
<line fill="none" stroke="#010101" stroke-width="3" stroke-miterlimit="10" x1="339.2" y1="262.8" x2="339.2" y2="266.2"/>
<path fill="none" stroke="#010101" stroke-width="3" stroke-miterlimit="10" d="M350.9,264.5"/>
<line fill="none" stroke="#010101" stroke-width="3" stroke-miterlimit="10" x1="347.2" y1="262.8" x2="347.2" y2="266.2"/>
<line fill="none" stroke="#010101" stroke-width="3" stroke-miterlimit="10" x1="355.2" y1="262.8" x2="355.2" y2="266.2"/>
<path fill="none" stroke="#010101" stroke-width="3" stroke-miterlimit="10" d="M326.7,271.3"/>
<line fill="none" stroke="#010101" stroke-width="3" stroke-miterlimit="10" x1="323.1" y1="269.6" x2="323.1" y2="273"/>
<line fill="none" stroke="#010101" stroke-width="3" stroke-miterlimit="10" x1="331.1" y1="269.6" x2="331.1" y2="273"/>
<line fill="none" stroke="#010101" stroke-width="3" stroke-miterlimit="10" x1="339.2" y1="269.6" x2="339.2" y2="273"/>
<path fill="none" stroke="#010101" stroke-width="3" stroke-miterlimit="10" d="M350.9,271.3"/>
<line fill="none" stroke="#010101" stroke-width="3" stroke-miterlimit="10" x1="347.2" y1="269.6" x2="347.2" y2="273"/>
<line fill="none" stroke="#010101" stroke-width="3" stroke-miterlimit="10" x1="355.3" y1="269.6" x2="355.3" y2="273"/>
<path fill="none" stroke="#010101" stroke-width="3" stroke-miterlimit="10" d="M326.8,278.2"/>
<line fill="none" stroke="#010101" stroke-width="3" stroke-miterlimit="10" x1="323.1" y1="276.5" x2="323.1" y2="279.9"/>
<line fill="none" stroke="#010101" stroke-width="3" stroke-miterlimit="10" x1="331.1" y1="276.5" x2="331.1" y2="279.9"/>
<line fill="none" stroke="#010101" stroke-width="3" stroke-miterlimit="10" x1="339.2" y1="276.5" x2="339.2" y2="279.9"/>
<path fill="none" stroke="#010101" stroke-width="3" stroke-miterlimit="10" d="M350.9,278.2"/>
<line fill="none" stroke="#010101" stroke-width="3" stroke-miterlimit="10" x1="347.2" y1="276.5" x2="347.2" y2="279.9"/>
<line fill="none" stroke="#010101" stroke-width="3" stroke-miterlimit="10" x1="355.3" y1="276.5" x2="355.3" y2="279.9"/>
<path fill="none" stroke="#010101" stroke-width="3" stroke-miterlimit="10" d="M326.8,285.1"/>
<line fill="none" stroke="#010101" stroke-width="3" stroke-miterlimit="10" x1="323.1" y1="283.3" x2="323.1" y2="286.8"/>
<line fill="none" stroke="#010101" stroke-width="3" stroke-miterlimit="10" x1="331.1" y1="283.3" x2="331.1" y2="286.8"/>
<line fill="none" stroke="#010101" stroke-width="3" stroke-miterlimit="10" x1="339.2" y1="283.3" x2="339.2" y2="286.8"/>
<path fill="none" stroke="#010101" stroke-width="3" stroke-miterlimit="10" d="M350.9,285.1"/>
<line fill="none" stroke="#010101" stroke-width="3" stroke-miterlimit="10" x1="347.2" y1="283.3" x2="347.2" y2="286.8"/>
<line fill="none" stroke="#010101" stroke-width="3" stroke-miterlimit="10" x1="355.3" y1="283.3" x2="355.3" y2="286.8"/>
<path fill="none" stroke="#010101" stroke-width="3" stroke-miterlimit="10" d="M326.8,291.9"/>
<line fill="none" stroke="#010101" stroke-width="3" stroke-miterlimit="10" x1="323.1" y1="290.2" x2="323.1" y2="293.6"/>
<line fill="none" stroke="#010101" stroke-width="3" stroke-miterlimit="10" x1="331.2" y1="290.2" x2="331.2" y2="293.6"/>
<line fill="none" stroke="#010101" stroke-width="3" stroke-miterlimit="10" x1="339.2" y1="290.2" x2="339.2" y2="293.6"/>
<path fill="none" stroke="#010101" stroke-width="3" stroke-miterlimit="10" d="M350.9,291.9"/>
<line fill="none" stroke="#010101" stroke-width="3" stroke-miterlimit="10" x1="347.2" y1="290.2" x2="347.2" y2="293.6"/>
<line fill="none" stroke="#010101" stroke-width="3" stroke-miterlimit="10" x1="355.3" y1="290.2" x2="355.3" y2="293.6"/>
<path fill="none" stroke="#010101" stroke-width="3" stroke-miterlimit="10" d="M326.8,298.8"/>
<line fill="none" stroke="#010101" stroke-width="3" stroke-miterlimit="10" x1="323.1" y1="297.1" x2="323.1" y2="300.5"/>
<line fill="none" stroke="#010101" stroke-width="3" stroke-miterlimit="10" x1="331.2" y1="297.1" x2="331.2" y2="300.5"/>
<line fill="none" stroke="#010101" stroke-width="3" stroke-miterlimit="10" x1="339.2" y1="297.1" x2="339.2" y2="300.5"/>
<path fill="none" stroke="#010101" stroke-width="3" stroke-miterlimit="10" d="M350.9,298.8"/>
<line fill="none" stroke="#010101" stroke-width="3" stroke-miterlimit="10" x1="347.3" y1="297.1" x2="347.3" y2="300.5"/>
<line fill="none" stroke="#010101" stroke-width="3" stroke-miterlimit="10" x1="355.3" y1="297.1" x2="355.3" y2="300.5"/>
<path fill="none" stroke="#010101" stroke-width="3" stroke-miterlimit="10" d="M326.8,305.6"/>
<line fill="none" stroke="#010101" stroke-width="3" stroke-miterlimit="10" x1="323.1" y1="303.9" x2="323.1" y2="307.4"/>
<line fill="none" stroke="#010101" stroke-width="3" stroke-miterlimit="10" x1="331.2" y1="303.9" x2="331.2" y2="307.4"/>
<line fill="none" stroke="#010101" stroke-width="3" stroke-miterlimit="10" x1="339.2" y1="303.9" x2="339.2" y2="307.4"/>
<path fill="none" stroke="#010101" stroke-width="3" stroke-miterlimit="10" d="M350.9,305.6"/>
<line fill="none" stroke="#010101" stroke-width="3" stroke-miterlimit="10" x1="347.3" y1="303.9" x2="347.3" y2="307.4"/>
<line fill="none" stroke="#010101" stroke-width="3" stroke-miterlimit="10" x1="355.3" y1="303.9" x2="355.3" y2="307.4"/>
<path fill="none" stroke="#010101" stroke-width="3" stroke-miterlimit="10" d="M326.8,312.5"/>
<line fill="none" stroke="#010101" stroke-width="3" stroke-miterlimit="10" x1="323.1" y1="310.8" x2="323.1" y2="314.2"/>
<line fill="none" stroke="#010101" stroke-width="3" stroke-miterlimit="10" x1="331.2" y1="310.8" x2="331.2" y2="314.2"/>
<line fill="none" stroke="#010101" stroke-width="3" stroke-miterlimit="10" x1="339.2" y1="310.8" x2="339.2" y2="314.2"/>
<path fill="none" stroke="#010101" stroke-width="3" stroke-miterlimit="10" d="M351,312.5"/>
<line fill="none" stroke="#010101" stroke-width="3" stroke-miterlimit="10" x1="347.3" y1="310.8" x2="347.3" y2="314.2"/>
<line fill="none" stroke="#010101" stroke-width="3" stroke-miterlimit="10" x1="355.3" y1="310.8" x2="355.3" y2="314.2"/>
<path fill="none" stroke="#010101" stroke-width="3" stroke-miterlimit="10" d="M326.8,319.4"/>
<line fill="none" stroke="#010101" stroke-width="3" stroke-miterlimit="10" x1="323.1" y1="317.7" x2="323.1" y2="321.1"/>
<line fill="none" stroke="#010101" stroke-width="3" stroke-miterlimit="10" x1="331.2" y1="317.7" x2="331.2" y2="321.1"/>
<line fill="none" stroke="#010101" stroke-width="3" stroke-miterlimit="10" x1="339.3" y1="317.7" x2="339.3" y2="321.1"/>
<path fill="none" stroke="#010101" stroke-width="3" stroke-miterlimit="10" d="M351,319.4"/>
<line fill="none" stroke="#010101" stroke-width="3" stroke-miterlimit="10" x1="347.3" y1="317.7" x2="347.3" y2="321.1"/>
<line fill="none" stroke="#010101" stroke-width="3" stroke-miterlimit="10" x1="355.3" y1="317.7" x2="355.3" y2="321.1"/>
<path fill="none" stroke="#010101" stroke-width="3" stroke-miterlimit="10" d="M326.8,326.2"/>
<line fill="none" stroke="#010101" stroke-width="3" stroke-miterlimit="10" x1="323.2" y1="324.5" x2="323.2" y2="327.9"/>
<line fill="none" stroke="#010101" stroke-width="3" stroke-miterlimit="10" x1="331.2" y1="324.5" x2="331.2" y2="327.9"/>
<line fill="none" stroke="#010101" stroke-width="3" stroke-miterlimit="10" x1="339.3" y1="324.5" x2="339.3" y2="327.9"/>
<path fill="none" stroke="#010101" stroke-width="3" stroke-miterlimit="10" d="M351,326.2"/>
<line fill="none" stroke="#010101" stroke-width="3" stroke-miterlimit="10" x1="347.3" y1="324.5" x2="347.3" y2="327.9"/>
<line fill="none" stroke="#010101" stroke-width="3" stroke-miterlimit="10" x1="355.4" y1="324.5" x2="355.4" y2="327.9"/>
<path fill="none" stroke="#010101" stroke-width="3" stroke-miterlimit="10" d="M326.9,333.1"/>
<line fill="none" stroke="#010101" stroke-width="3" stroke-miterlimit="10" x1="323.2" y1="331.4" x2="323.2" y2="334.8"/>
<line fill="none" stroke="#010101" stroke-width="3" stroke-miterlimit="10" x1="331.2" y1="331.4" x2="331.2" y2="334.8"/>
<line fill="none" stroke="#010101" stroke-width="3" stroke-miterlimit="10" x1="339.3" y1="331.4" x2="339.3" y2="334.8"/>
<path fill="none" stroke="#010101" stroke-width="3" stroke-miterlimit="10" d="M351,333.1"/>
<line fill="none" stroke="#010101" stroke-width="3" stroke-miterlimit="10" x1="347.3" y1="331.4" x2="347.3" y2="334.8"/>
<line fill="none" stroke="#010101" stroke-width="3" stroke-miterlimit="10" x1="355.4" y1="331.4" x2="355.4" y2="334.8"/>
<path fill="none" stroke="#010101" stroke-width="3" stroke-miterlimit="10" d="M326.9,340"/>
<line fill="none" stroke="#010101" stroke-width="3" stroke-miterlimit="10" x1="323.2" y1="338.2" x2="323.2" y2="341.7"/>
<line fill="none" stroke="#010101" stroke-width="3" stroke-miterlimit="10" x1="331.2" y1="338.2" x2="331.2" y2="341.7"/>
<line fill="none" stroke="#010101" stroke-width="3" stroke-miterlimit="10" x1="339.3" y1="338.2" x2="339.3" y2="341.7"/>
<path fill="none" stroke="#010101" stroke-width="3" stroke-miterlimit="10" d="M351,340"/>
<line fill="none" stroke="#010101" stroke-width="3" stroke-miterlimit="10" x1="347.3" y1="338.2" x2="347.3" y2="341.7"/>
<line fill="none" stroke="#010101" stroke-width="3" stroke-miterlimit="10" x1="355.4" y1="338.2" x2="355.4" y2="341.7"/>
<path fill="none" stroke="#010101" stroke-width="3" stroke-miterlimit="10" d="M326.9,346.8"/>
<line fill="none" stroke="#010101" stroke-width="3" stroke-miterlimit="10" x1="323.2" y1="345.1" x2="323.2" y2="348.5"/>
<line fill="none" stroke="#010101" stroke-width="3" stroke-miterlimit="10" x1="331.3" y1="345.1" x2="331.3" y2="348.5"/>
<line fill="none" stroke="#010101" stroke-width="3" stroke-miterlimit="10" x1="339.3" y1="345.1" x2="339.3" y2="348.5"/>
<path fill="none" stroke="#010101" stroke-width="3" stroke-miterlimit="10" d="M351,346.8"/>
<line fill="none" stroke="#010101" stroke-width="3" stroke-miterlimit="10" x1="347.3" y1="345.1" x2="347.3" y2="348.5"/>
<line fill="none" stroke="#010101" stroke-width="3" stroke-miterlimit="10" x1="355.4" y1="345.1" x2="355.4" y2="348.5"/>
<path fill="none" stroke="#010101" stroke-width="3" stroke-miterlimit="10" d="M326.9,353.7"/>
<line fill="none" stroke="#010101" stroke-width="3" stroke-miterlimit="10" x1="323.2" y1="352" x2="323.2" y2="355.4"/>
<line fill="none" stroke="#010101" stroke-width="3" stroke-miterlimit="10" x1="331.3" y1="352" x2="331.3" y2="355.4"/>
<line fill="none" stroke="#010101" stroke-width="3" stroke-miterlimit="10" x1="339.3" y1="352" x2="339.3" y2="355.4"/>
<path fill="none" stroke="#010101" stroke-width="3" stroke-miterlimit="10" d="M351,353.7"/>
<line fill="none" stroke="#010101" stroke-width="3" stroke-miterlimit="10" x1="347.4" y1="352" x2="347.4" y2="355.4"/>
<line fill="none" stroke="#010101" stroke-width="3" stroke-miterlimit="10" x1="355.4" y1="352" x2="355.4" y2="355.4"/>
<path fill="none" stroke="#010101" stroke-width="3" stroke-miterlimit="10" d="M326.9,360.5"/>
<line fill="none" stroke="#010101" stroke-width="3" stroke-miterlimit="10" x1="323.2" y1="358.8" x2="323.2" y2="362.3"/>
<line fill="none" stroke="#010101" stroke-width="3" stroke-miterlimit="10" x1="331.3" y1="358.8" x2="331.3" y2="362.3"/>
<line fill="none" stroke="#010101" stroke-width="3" stroke-miterlimit="10" x1="339.3" y1="358.8" x2="339.3" y2="362.3"/>
<path fill="none" stroke="#010101" stroke-width="3" stroke-miterlimit="10" d="M351,360.5"/>
<line fill="none" stroke="#010101" stroke-width="3" stroke-miterlimit="10" x1="347.4" y1="358.8" x2="347.4" y2="362.3"/>
<line fill="none" stroke="#010101" stroke-width="3" stroke-miterlimit="10" x1="355.4" y1="358.8" x2="355.4" y2="362.3"/>
<path fill="none" stroke="#010101" stroke-width="3" stroke-miterlimit="10" d="M326.9,367.4"/>
<line fill="none" stroke="#010101" stroke-width="3" stroke-miterlimit="10" x1="323.2" y1="365.7" x2="323.2" y2="369.1"/>
<line fill="none" stroke="#010101" stroke-width="3" stroke-miterlimit="10" x1="331.3" y1="365.7" x2="331.3" y2="369.1"/>
<line fill="none" stroke="#010101" stroke-width="3" stroke-miterlimit="10" x1="339.3" y1="365.7" x2="339.3" y2="369.1"/>
<path fill="none" stroke="#010101" stroke-width="3" stroke-miterlimit="10" d="M351.1,367.4"/>
<line fill="none" stroke="#010101" stroke-width="3" stroke-miterlimit="10" x1="347.4" y1="365.7" x2="347.4" y2="369.1"/>
<line fill="none" stroke="#010101" stroke-width="3" stroke-miterlimit="10" x1="355.4" y1="365.7" x2="355.4" y2="369.1"/>
<path fill="none" stroke="#010101" stroke-width="3" stroke-miterlimit="10" d="M317.7,420.7"/>
<line fill="none" stroke="#010101" stroke-width="3" stroke-miterlimit="10" x1="314" y1="419.7" x2="314" y2="421.6"/>
<line fill="none" stroke="#010101" stroke-width="3" stroke-miterlimit="10" x1="271.5" y1="418.3" x2="282.4" y2="418.3"/>
<line fill="none" stroke="#010101" stroke-width="3" stroke-miterlimit="10" x1="277" y1="418.3" x2="277" y2="413.2"/>
<polyline fill="none" stroke="#010101" stroke-width="3" stroke-miterlimit="10" points="208,400.2 267,400.2 267,421.2 208,421.2 
	"/>
<line fill="none" stroke="#010101" stroke-width="3" stroke-miterlimit="10" x1="208" y1="405.6" x2="267" y2="405.6"/>
<polyline fill="none" stroke="#010101" stroke-width="4" stroke-miterlimit="10" points="391,384.8 372.7,384.8 372.7,399.3 
	353.6,399.3 353.6,379.4 316.5,379.4 316.5,363.4 267.6,363.4 267.6,379.4 226.7,379.4 226.7,371.8 205.3,371.8 "/>
<line fill="none" stroke="#010101" stroke-width="3" stroke-miterlimit="10" x1="276.2" y1="367.2" x2="276.2" y2="383.9"/>
<line fill="none" stroke="#010101" stroke-width="3" stroke-miterlimit="10" x1="284.2" y1="367.2" x2="284.2" y2="383.9"/>
<line fill="none" stroke="#010101" stroke-width="3" stroke-miterlimit="10" x1="299.6" y1="367.2" x2="299.6" y2="383.9"/>
<line fill="none" stroke="#010101" stroke-width="3" stroke-miterlimit="10" x1="307.7" y1="381.2" x2="307.7" y2="397.9"/>
<line fill="none" stroke="#010101" stroke-width="3" stroke-miterlimit="10" x1="315.4" y1="383.4" x2="315.4" y2="421.2"/>
<line fill="none" stroke="#010101" stroke-width="3" stroke-miterlimit="10" x1="316.5" y1="397.9" x2="353.6" y2="397.9"/>
<line fill="none" stroke="#010101" stroke-width="3" stroke-miterlimit="10" x1="316.5" y1="390.7" x2="330" y2="390.7"/>
<line fill="none" stroke="#010101" stroke-width="3" stroke-miterlimit="10" x1="225.6" y1="391.8" x2="266.5" y2="391.8"/>
</svg>
